<svg width="34" height="32" viewBox="0 0 34 32" fill="none" xmlns="http://www.w3.org/2000/svg">
<path d="M17 0.000837872C12.7039 -0.042818 8.5662 1.62105 5.4963 4.62676C2.42639 7.63248 0.675478 11.7341 0.628357 16.0302C0.644911 19.4253 1.73708 22.7279 3.748 25.4635C5.75891 28.1991 8.5851 30.2269 11.8206 31.2558C12.6392 31.4047 12.9369 30.9135 12.9369 30.4819C12.9369 30.0503 12.9369 29.0978 12.9369 27.7583C8.38257 28.7257 7.41516 25.6151 7.41516 25.6151C7.11198 24.6386 6.46743 23.8038 5.59939 23.2635C4.11106 22.2812 5.71846 22.2961 5.71846 22.2961C6.2329 22.3648 6.7251 22.5492 7.15814 22.8353C7.59117 23.1214 7.95381 23.5019 8.21886 23.9481C8.68073 24.749 9.4386 25.3366 10.3293 25.5843C11.2201 25.832 12.1725 25.7202 12.9815 25.2727C13.0647 24.4577 13.4338 23.6984 14.0234 23.1295C10.3918 22.7277 6.58169 21.3584 6.58169 15.2116C6.54921 13.6082 7.14166 12.055 8.23374 10.8806C7.73638 9.50395 7.79511 7.9877 8.39746 6.65369C8.39746 6.65369 9.78161 6.22207 12.8625 8.29085C15.5443 7.57621 18.3665 7.57621 21.0483 8.29085C24.1738 6.22207 25.5133 6.65369 25.5133 6.65369C26.1156 7.9877 26.1744 9.50395 25.677 10.8806C26.7944 12.0335 27.419 13.5762 27.4184 15.1818C27.4184 21.3435 23.5785 22.6979 19.9767 23.0998C20.3711 23.4827 20.6757 23.9482 20.8687 24.4629C21.0617 24.9776 21.1383 25.5286 21.0929 26.0764V30.467C21.0929 30.467 21.3906 31.4047 22.2092 31.241C25.4355 30.2057 28.2522 28.1773 30.2569 25.4456C32.2616 22.7139 33.3518 19.4185 33.3717 16.0302C33.3246 11.7341 31.5737 7.63248 28.5037 4.62676C25.4338 1.62105 21.2962 -0.042818 17 0.000837872Z" fill="#303030"/>
</svg>
