<svg width="38" height="38" viewBox="0 0 38 38" fill="none" xmlns="http://www.w3.org/2000/svg">
<g filter="url(#filter0_d_33_89)">
<path d="M7 8C8.65685 8 10 6.20914 10 4C10 1.79086 8.65685 0 7 0C5.34315 0 4 1.79086 4 4C4 6.20914 5.34315 8 7 8Z" fill="#303030"/>
<path d="M8.8 11H5.2C4.53726 11 4 11.6544 4 12.4615V28.5385C4 29.3456 4.53726 30 5.2 30H8.8C9.46274 30 10 29.3456 10 28.5385V12.4615C10 11.6544 9.46274 11 8.8 11Z" fill="#303030"/>
<path d="M22.5 11.0001C21.2553 10.9961 20.0221 11.2201 18.8707 11.6591C17.7194 12.0982 16.6726 12.7438 15.7902 13.5589C14.9078 14.3741 14.2072 15.3428 13.7284 16.4096C13.2497 17.4764 13.0021 18.6205 13 19.7762V28.6429C13 29.0028 13.154 29.348 13.4281 29.6025C13.7022 29.857 14.0739 30 14.4615 30H17.8718C18.2594 30 18.6312 29.857 18.9053 29.6025C19.1793 29.348 19.3333 29.0028 19.3333 28.6429V19.7762C19.333 19.3652 19.426 18.9586 19.6062 18.5832C19.7864 18.2077 20.0498 17.8718 20.3792 17.5972C20.7087 17.3226 21.0967 17.1155 21.5181 16.9895C21.9395 16.8635 22.3847 16.8214 22.8248 16.8659C23.614 16.9582 24.3393 17.3163 24.8632 17.8722C25.387 18.4281 25.6729 19.1431 25.6667 19.8818V28.6429C25.6667 29.0028 25.8206 29.348 26.0947 29.6025C26.3688 29.857 26.7406 30 27.1282 30H30.5385C30.9261 30 31.2978 29.857 31.5719 29.6025C31.846 29.348 32 29.0028 32 28.6429V19.7762C31.9979 18.6205 31.7503 17.4764 31.2716 16.4096C30.7928 15.3428 30.0922 14.3741 29.2098 13.5589C28.3274 12.7438 27.2806 12.0982 26.1293 11.6591C24.9779 11.2201 23.7447 10.9961 22.5 11.0001Z" fill="#303030"/>
</g>
<defs>
<filter id="filter0_d_33_89" x="0" y="0" width="38" height="38" filterUnits="userSpaceOnUse" color-interpolation-filters="sRGB">
<feFlood flood-opacity="0" result="BackgroundImageFix"/>
<feColorMatrix in="SourceAlpha" type="matrix" values="0 0 0 0 0 0 0 0 0 0 0 0 0 0 0 0 0 0 127 0" result="hardAlpha"/>
<feOffset dy="4"/>
<feGaussianBlur stdDeviation="2"/>
<feComposite in2="hardAlpha" operator="out"/>
<feColorMatrix type="matrix" values="0 0 0 0 0 0 0 0 0 0 0 0 0 0 0 0 0 0 0.25 0"/>
<feBlend mode="normal" in2="BackgroundImageFix" result="effect1_dropShadow_33_89"/>
<feBlend mode="normal" in="SourceGraphic" in2="effect1_dropShadow_33_89" result="shape"/>
</filter>
</defs>
</svg>
