<svg width="35" height="30" viewBox="0 0 35 30" fill="none" xmlns="http://www.w3.org/2000/svg">
<path d="M34.5916 13.9L28.0972 2.76668C27.6122 1.93393 26.8656 1.23376 25.9415 0.74497C25.0174 0.256181 23.9525 -0.0018195 22.8667 9.65904e-06H12.1333C11.0475 -0.0018195 9.98256 0.256181 9.05847 0.74497C8.13439 1.23376 7.38782 1.93393 6.9028 2.76668L0.408363 13.9C0.137495 14.3658 -0.00234949 14.8795 2.98609e-05 15.4V25C2.98609e-05 26.3261 0.614611 27.5979 1.70857 28.5355C2.80253 29.4732 4.28626 30 5.83335 30H29.1666C30.7137 30 32.1975 29.4732 33.2914 28.5355C34.3854 27.5979 35 26.3261 35 25V15.4C35.0023 14.8795 34.8625 14.3658 34.5916 13.9ZM10.3833 4.25001C10.5464 3.97262 10.7967 3.7398 11.1059 3.57783C11.4151 3.41586 11.771 3.33118 12.1333 3.33334H22.8667C23.229 3.33118 23.5849 3.41586 23.8941 3.57783C24.2033 3.7398 24.4536 3.97262 24.6167 4.25001L29.9055 13.3333H25.2778C24.7621 13.3333 24.2675 13.5089 23.9028 13.8215C23.5382 14.1341 23.3333 14.558 23.3333 15V18.3333C23.3333 18.7754 23.1285 19.1993 22.7638 19.5118C22.3992 19.8244 21.9046 20 21.3889 20H13.6111C13.0954 20 12.6008 19.8244 12.2362 19.5118C11.8715 19.1993 11.6667 18.7754 11.6667 18.3333V15C11.6667 14.558 11.4618 14.1341 11.0972 13.8215C10.7325 13.5089 10.2379 13.3333 9.72224 13.3333H5.09447L10.3833 4.25001Z" fill="#303030"/>
</svg>
